<svg width="12" height="16" viewBox="0 0 12 16" fill="none" xmlns="http://www.w3.org/2000/svg">
<g id="Symbol R">
<path id="Vector" d="M1.72127 15.1077C1.47908 15.1077 1.23624 15.0505 1.01353 14.9348C0.503175 14.6702 0.182419 14.1424 0.182419 13.5664V1.89063C0.182419 1.48174 0.344745 1.08975 0.633036 0.801122C0.921977 0.511843 1.31351 0.349327 1.72192 0.349327H9.65188C10.5018 0.349327 11.1914 1.03905 11.1914 1.89063V7.96028C11.1914 8.46083 10.9485 8.93018 10.5401 9.21946L2.60952 14.8256C2.34525 15.0128 2.03424 15.1077 1.72127 15.1077ZM3.26077 3.43193V10.5917L8.11173 7.162V3.43193H3.26077Z" fill="#727272"/>
<g id="Group">
<path id="Vector_2" d="M9.67757 15.1227C9.28282 15.1227 8.88872 14.9723 8.58762 14.671L5.2859 11.3667C4.68369 10.764 4.68369 9.78712 5.2859 9.18444C5.8881 8.58177 6.86424 8.58177 7.46645 9.18444L10.7682 12.4887C11.3704 13.0914 11.3704 14.0683 10.7682 14.671C10.4664 14.9723 10.0717 15.1227 9.67757 15.1227Z" fill="#727272"/>
</g>
<g id="Group_2">
<path id="Vector_3" d="M4.39752 4.55764V8.43693L7.0142 6.58872V4.55764H4.39752Z" fill="#B6B6B6"/>
</g>
</g>
</svg>
